<svg width="38" height="38" viewBox="0 0 38 38" fill="none" xmlns="http://www.w3.org/2000/svg">
<g clip-path="url(#clip0_9_285)">
<path d="M19 4.90825C23.1958 6.09575 27.7875 7.52075 30.0833 8.31242V20.7416C30.0833 23.4333 27.1542 28.1833 19 32.9333C10.8458 28.1041 7.91667 23.4333 7.91667 20.7416V8.31242C10.2125 7.44159 14.8042 6.09575 19 4.90825ZM19 1.58325C19 1.58325 4.75 5.62075 4.75 6.33325V20.7416C4.75 28.0249 15.2792 34.4374 18.2083 36.1791C18.4427 36.3357 18.7182 36.4192 19 36.4192C19.2818 36.4192 19.5573 36.3357 19.7917 36.1791C22.8 34.5166 33.25 28.0249 33.25 20.7416V6.33325C33.25 5.62075 19 1.58325 19 1.58325Z" fill="#F0F220"/>
<path d="M15.5167 23.2749L11.5584 19.3957C11.2841 19.1153 11.1177 18.747 11.0888 18.3559C11.0598 17.9647 11.1701 17.5759 11.4 17.2582C11.5282 17.0674 11.6984 16.9085 11.8975 16.7937C12.0966 16.6789 12.3194 16.6113 12.5487 16.596C12.778 16.5807 13.0078 16.6182 13.2204 16.7055C13.433 16.7929 13.6227 16.9278 13.775 17.0999L16.625 19.9499L24.225 12.3499C24.53 12.1212 24.9071 12.0102 25.2873 12.0372C25.6675 12.0642 26.0251 12.2275 26.2946 12.497C26.5641 12.7665 26.7274 13.1241 26.7544 13.5043C26.7814 13.8845 26.6704 14.2616 26.4417 14.5665L17.7334 23.2749C17.5925 23.4284 17.4212 23.5511 17.2304 23.6349C17.0396 23.7188 16.8335 23.7621 16.625 23.7621C16.4166 23.7621 16.2105 23.7188 16.0197 23.6349C15.8289 23.5511 15.6576 23.4284 15.5167 23.2749Z" fill="#F0F220"/>
</g>
<defs>
<clipPath id="clip0_9_285">
<rect width="38" height="38" fill="white"/>
</clipPath>
</defs>
</svg>
