<svg width="34" height="34" viewBox="0 0 34 34" fill="none" xmlns="http://www.w3.org/2000/svg">
<path fill-rule="evenodd" clip-rule="evenodd" d="M15.3456 1.76811C16.4021 1.29963 17.5981 1.29963 18.6546 1.76811L30.8827 7.19023C33.6815 8.43124 32.8247 12.7501 29.7797 12.7501H4.22042C1.17545 12.7501 0.318678 8.43123 3.11741 7.19023L15.3456 1.76811ZM17.5516 4.43092C17.1994 4.27476 16.8008 4.27476 16.4486 4.43092L4.83199 9.58173C4.69205 9.64378 4.73634 9.85291 4.88941 9.85291H29.1107C29.2639 9.85291 29.3081 9.64378 29.1681 9.58173L17.5516 4.43092Z" fill="#F0F220"/>
<path d="M2.83325 31.1667C2.83325 30.3842 3.46752 29.75 4.24992 29.75H29.7499C30.5323 29.75 31.1666 30.3842 31.1666 31.1667C31.1666 31.9491 30.5323 32.5833 29.7499 32.5833H4.24992C3.46752 32.5833 2.83325 31.9491 2.83325 31.1667Z" fill="#F0F220"/>
<path d="M15.5833 26.9167C15.5833 27.6992 16.2175 28.3334 16.9999 28.3334C17.7823 28.3334 18.4166 27.6992 18.4166 26.9167V15.5834C18.4166 14.801 17.7823 14.1667 16.9999 14.1667C16.2175 14.1667 15.5833 14.801 15.5833 15.5834V26.9167Z" fill="#F0F220"/>
<path d="M8.49992 28.3334C7.71752 28.3334 7.08325 27.6992 7.08325 26.9167V15.5834C7.08325 14.801 7.71751 14.1667 8.49992 14.1667C9.28232 14.1667 9.91658 14.801 9.91658 15.5834V26.9167C9.91658 27.6992 9.28233 28.3334 8.49992 28.3334Z" fill="#F0F220"/>
<path d="M24.0833 26.9167C24.0833 27.6992 24.7175 28.3334 25.4999 28.3334C26.2823 28.3334 26.9166 27.6992 26.9166 26.9167V15.5834C26.9166 14.801 26.2823 14.1667 25.4999 14.1667C24.7175 14.1667 24.0833 14.801 24.0833 15.5834V26.9167Z" fill="#F0F220"/>
</svg>
