<svg width="28" height="28" viewBox="0 0 28 28" fill="none" xmlns="http://www.w3.org/2000/svg">
<g clip-path="url(#clip0_9_221)">
<path fill-rule="evenodd" clip-rule="evenodd" d="M14 14C10.8969 14 8.37334 11.4884 8.37334 8.39998C8.37334 5.31158 10.8969 2.79998 14 2.79998C17.1031 2.79998 19.6267 5.31158 19.6267 8.39998C19.6267 11.4884 17.1031 14 14 14ZM19.2863 14.9421C21.5186 13.1543 22.8198 10.2633 22.3415 7.0979C21.7859 3.4257 18.7166 0.487168 15.0114 0.0587676C9.89817 -0.533432 5.56001 3.42858 5.56001 8.39998C5.56001 11.046 6.79225 13.4035 8.71375 14.9421C3.99298 16.7075 0.546648 20.853 0.00648769 26.4474C-0.0722847 27.2748 0.576194 28 1.41175 28C2.12775 28 2.73824 27.4624 2.80154 26.7526C3.36561 20.5044 8.17219 16.8 14 16.8C19.8278 16.8 24.6344 20.5044 25.1985 26.7526C25.2618 27.4624 25.8723 28 26.5883 28C27.4238 28 28.0723 27.2748 27.9935 26.4474C27.4534 20.853 24.007 16.7075 19.2863 14.9421Z" fill="#F0F220"/>
</g>
<defs>
<clipPath id="clip0_9_221">
<rect width="28" height="28" fill="white"/>
</clipPath>
</defs>
</svg>
