<svg width="33" height="33" viewBox="0 0 33 33" fill="none" xmlns="http://www.w3.org/2000/svg">
<path fill-rule="evenodd" clip-rule="evenodd" d="M21.4653 2.17739C23.7432 1.85196 25.7812 3.61955 25.7812 5.92063V7.81332C27.4168 8.67785 28.5312 10.3962 28.5312 12.3749V26.1248C28.5312 28.9726 26.2228 31.281 23.375 31.281H9.625C6.77728 31.281 4.46875 28.9726 4.46875 26.1248V6.87485C4.46875 6.86207 4.46898 6.84933 4.46944 6.83667C4.46898 6.81688 4.46875 6.79703 4.46875 6.77713C4.46875 5.53104 5.38502 4.47456 6.6186 4.29834L21.4653 2.17739ZM6.53125 9.2811V26.1248C6.53125 27.8335 7.91637 29.2185 9.625 29.2185H23.375C25.0836 29.2185 26.4687 27.8335 26.4687 26.1248V12.3749C26.4687 10.6662 25.0836 9.2811 23.375 9.2811H6.53125ZM6.97272 7.2186H23.7187V5.92063C23.7187 4.87468 22.7924 4.07123 21.7569 4.21915L6.91028 6.3401C6.6928 6.37118 6.53125 6.55743 6.53125 6.77713C6.53125 7.02095 6.72891 7.2186 6.97272 7.2186ZM9.96875 16.4998C9.96875 15.9303 10.4305 15.4685 11 15.4685H22C22.5695 15.4685 23.0312 15.9303 23.0312 16.4998C23.0312 17.0695 22.5695 17.531 22 17.531H11C10.4305 17.531 9.96875 17.0695 9.96875 16.4998ZM9.96875 21.3123C9.96875 20.7428 10.4305 20.281 11 20.281H18.5625C19.132 20.281 19.5937 20.7428 19.5937 21.3123C19.5937 21.882 19.132 22.3435 18.5625 22.3435H11C10.4305 22.3435 9.96875 21.882 9.96875 21.3123Z" fill="#5E5693"/>
</svg>
