<svg width="23" height="23" viewBox="0 0 23 23" fill="none" xmlns="http://www.w3.org/2000/svg">
<path fill-rule="evenodd" clip-rule="evenodd" d="M11.5 11.5C8.95102 11.5 6.8781 9.43688 6.8781 6.89998C6.8781 4.36308 8.95102 2.29998 11.5 2.29998C14.049 2.29998 16.1219 4.36308 16.1219 6.89998C16.1219 9.43688 14.049 11.5 11.5 11.5ZM15.8423 12.2739C17.676 10.8054 18.7448 8.43057 18.352 5.83042C17.8956 2.81397 15.3743 0.400173 12.3308 0.0482734C8.13064 -0.438177 4.56715 2.81633 4.56715 6.89998C4.56715 9.07348 5.57935 11.0101 7.15772 12.2739C3.27995 13.7241 0.449033 17.1292 0.00532917 21.7246C-0.0593767 22.4043 0.473302 23 1.15965 23C1.74779 23 2.24927 22.5584 2.30127 21.9753C2.76461 16.8429 6.71287 13.8 11.5 13.8C16.2871 13.8 20.2354 16.8429 20.6987 21.9753C20.7507 22.5584 21.2522 23 21.8404 23C22.5267 23 23.0594 22.4043 22.9947 21.7246C22.551 17.1292 19.7201 13.7241 15.8423 12.2739Z" fill="#F0F220"/>
</svg>
