<svg width="32" height="31" viewBox="0 0 32 31" fill="none" xmlns="http://www.w3.org/2000/svg">
<path d="M30.6666 15.4998C30.6666 23.3468 24.1001 29.7082 15.9999 29.7082C7.89975 29.7082 1.33325 23.3468 1.33325 15.4998C1.33325 7.65279 7.89975 1.2915 15.9999 1.2915C24.1001 1.2915 30.6666 7.65279 30.6666 15.4998ZM4.00903 15.4998C4.00903 21.9153 9.37753 27.1161 15.9999 27.1161C22.6223 27.1161 27.9909 21.9153 27.9909 15.4998C27.9909 9.0844 22.6223 3.88366 15.9999 3.88366C9.37753 3.88366 4.00903 9.0844 4.00903 15.4998Z" fill="#5E5693"/>
<path d="M16.0001 6.4585C15.2637 6.4585 14.6667 7.03679 14.6667 7.75016V16.103C14.6667 16.103 14.6667 16.4397 14.8357 16.693C14.9487 16.9078 15.125 17.0945 15.3566 17.224L21.5163 20.6693C22.1541 21.0259 22.9695 20.8142 23.3377 20.1964C23.7058 19.5786 23.4874 18.7886 22.8497 18.432L17.3334 15.3467V7.75016C17.3334 7.0368 16.7365 6.4585 16.0001 6.4585Z" fill="#5E5693"/>
</svg>
