<svg width="20" height="20" viewBox="0 0 20 20" fill="none" xmlns="http://www.w3.org/2000/svg">
<path d="M2.16667 17.3333H3.71042L14.3 6.74375L12.7562 5.2L2.16667 15.7896V17.3333ZM0 19.5V14.8958L14.3 0.622917C14.5167 0.424306 14.7561 0.270833 15.0182 0.1625C15.2804 0.0541668 15.5556 0 15.8437 0C16.1319 0 16.4118 0.0541668 16.6833 0.1625C16.9549 0.270833 17.1896 0.433333 17.3875 0.65L18.8771 2.16667C19.0937 2.36528 19.2519 2.6 19.3516 2.87083C19.4513 3.14167 19.5007 3.4125 19.5 3.68333C19.5 3.97222 19.4505 4.24775 19.3516 4.50992C19.2526 4.77208 19.0945 5.01114 18.8771 5.22708L4.60417 19.5H0ZM13.5146 5.98542L12.7562 5.2L14.3 6.74375L13.5146 5.98542Z" fill="#2AC785"/>
</svg>
